<svg width="240" height="388" viewBox="0 0 240 388" fill="none" xmlns="http://www.w3.org/2000/svg">
<path d="M113.44 139.88C112.267 144.893 110.773 149.587 108.96 153.96C107.147 158.227 104.747 161.96 101.76 165.16C98.7733 168.253 94.9867 170.707 90.4 172.52C85.92 174.227 80.4267 175.08 73.92 175.08C70.5067 175.08 67.3067 174.707 64.32 173.96C61.44 173.32 58.8267 172.467 56.48 171.4C54.24 170.333 52.2133 169.16 50.4 167.88C48.5867 166.6 47.0933 165.373 45.92 164.2L56 149.96C58.1333 151.88 60.64 153.693 63.52 155.4C66.5067 157.107 69.8667 157.96 73.6 157.96C78.72 157.96 82.9333 156.627 86.24 153.96C89.6533 151.187 92.2667 146.12 94.08 138.76L105.6 90.28H73.6L77.44 73.96H129.12L113.44 139.88ZM157.76 158.6C160.213 158.6 162.56 158.387 164.8 157.96C167.04 157.427 168.96 156.627 170.56 155.56C172.267 154.387 173.6 152.947 174.56 151.24C175.627 149.533 176.16 147.4 176.16 144.84C176.16 142.92 175.733 141.213 174.88 139.72C174.133 138.12 173.067 136.68 171.68 135.4C170.293 134.12 168.64 132.947 166.72 131.88C164.907 130.813 162.933 129.747 160.8 128.68C158.133 127.293 155.627 125.907 153.28 124.52C151.04 123.133 149.067 121.48 147.36 119.56C145.76 117.64 144.48 115.347 143.52 112.68C142.56 110.013 142.08 106.76 142.08 102.92C142.08 93.5333 145.227 86.0133 151.52 80.36C157.92 74.6 166.987 71.72 178.72 71.72C182.56 71.72 185.973 71.9867 188.96 72.52C192.053 73.0533 194.773 73.6933 197.12 74.44C199.467 75.1867 201.44 75.9867 203.04 76.84C204.747 77.6933 206.133 78.44 207.2 79.08L198.88 94.28C196.427 92.5733 193.333 91.1333 189.6 89.96C185.867 88.7867 181.387 88.2 176.16 88.2C172.107 88.2 168.64 89.1067 165.76 90.92C162.987 92.7333 161.6 95.88 161.6 100.36C161.6 103.987 162.773 106.76 165.12 108.68C167.573 110.493 170.507 112.147 173.92 113.64C177.12 115.133 180.053 116.68 182.72 118.28C185.387 119.88 187.68 121.747 189.6 123.88C191.52 126.013 193.013 128.52 194.08 131.4C195.253 134.28 195.84 137.693 195.84 141.64C195.84 152.52 192.32 160.84 185.28 166.6C178.347 172.253 168.48 175.08 155.68 175.08C151.413 175.08 147.573 174.76 144.16 174.12C140.853 173.48 137.973 172.733 135.52 171.88C133.067 171.027 130.933 170.12 129.12 169.16C127.413 168.093 126.027 167.187 124.96 166.44L133.44 151.4C134.507 152.04 135.84 152.787 137.44 153.64C139.147 154.493 141.013 155.293 143.04 156.04C145.173 156.787 147.467 157.427 149.92 157.96C152.373 158.387 154.987 158.6 157.76 158.6Z" fill="white"/>
<circle cx="120" cy="120" r="112" stroke="white" stroke-width="16"/>
<path d="M76.72 301.44C76.1333 303.947 75.3867 306.293 74.48 308.48C73.5733 310.613 72.3733 312.48 70.88 314.08C69.3867 315.627 67.4933 316.853 65.2 317.76C62.96 318.613 60.2133 319.04 56.96 319.04C55.2533 319.04 53.6533 318.853 52.16 318.48C50.72 318.16 49.4133 317.733 48.24 317.2C47.12 316.667 46.1067 316.08 45.2 315.44C44.2933 314.8 43.5467 314.187 42.96 313.6L48 306.48C49.0667 307.44 50.32 308.347 51.76 309.2C53.2533 310.053 54.9333 310.48 56.8 310.48C59.36 310.48 61.4667 309.813 63.12 308.48C64.8267 307.093 66.1333 304.56 67.04 300.88L72.8 276.64H56.8L58.72 268.48H84.56L76.72 301.44ZM109.36 267.36C113.68 267.36 117.067 268.773 119.52 271.6C121.973 274.373 123.2 278.08 123.2 282.72C123.2 284.8 123.04 287.147 122.72 289.76C122.4 292.373 121.867 295.04 121.12 297.76C120.373 300.427 119.387 303.04 118.16 305.6C116.933 308.16 115.44 310.453 113.68 312.48C111.92 314.453 109.84 316.053 107.44 317.28C105.093 318.453 102.373 319.04 99.28 319.04C94.9067 319.04 91.4933 317.653 89.04 314.88C86.5867 312.053 85.36 308.32 85.36 303.68C85.36 301.6 85.52 299.253 85.84 296.64C86.16 294.027 86.6933 291.387 87.44 288.72C88.24 286 89.2267 283.36 90.4 280.8C91.6267 278.24 93.12 275.973 94.88 274C96.6933 271.973 98.7733 270.373 101.12 269.2C103.52 267.973 106.267 267.36 109.36 267.36ZM100.4 310.48C102.587 310.48 104.48 309.547 106.08 307.68C107.733 305.813 109.093 303.52 110.16 300.8C111.227 298.027 112.027 295.093 112.56 292C113.093 288.853 113.36 286 113.36 283.44C113.36 281.36 112.987 279.6 112.24 278.16C111.547 276.667 110.213 275.92 108.24 275.92C106.053 275.92 104.133 276.853 102.48 278.72C100.827 280.587 99.4667 282.907 98.4 285.68C97.3333 288.4 96.5333 291.333 96 294.48C95.4667 297.627 95.2 300.453 95.2 302.96C95.2 305.04 95.5467 306.827 96.24 308.32C96.9867 309.76 98.3733 310.48 100.4 310.48ZM138.88 310.8C140.107 310.8 141.28 310.693 142.4 310.48C143.52 310.213 144.48 309.813 145.28 309.28C146.133 308.693 146.8 307.973 147.28 307.12C147.813 306.267 148.08 305.2 148.08 303.92C148.08 302.96 147.867 302.107 147.44 301.36C147.067 300.56 146.533 299.84 145.84 299.2C145.147 298.56 144.32 297.973 143.36 297.44C142.453 296.907 141.467 296.373 140.4 295.84C139.067 295.147 137.813 294.453 136.64 293.76C135.52 293.067 134.533 292.24 133.68 291.28C132.88 290.32 132.24 289.173 131.76 287.84C131.28 286.507 131.04 284.88 131.04 282.96C131.04 278.267 132.613 274.507 135.76 271.68C138.96 268.8 143.493 267.36 149.36 267.36C151.28 267.36 152.987 267.493 154.48 267.76C156.027 268.027 157.387 268.347 158.56 268.72C159.733 269.093 160.72 269.493 161.52 269.92C162.373 270.347 163.067 270.72 163.6 271.04L159.44 278.64C158.213 277.787 156.667 277.067 154.8 276.48C152.933 275.893 150.693 275.6 148.08 275.6C146.053 275.6 144.32 276.053 142.88 276.96C141.493 277.867 140.8 279.44 140.8 281.68C140.8 283.493 141.387 284.88 142.56 285.84C143.787 286.747 145.253 287.573 146.96 288.32C148.56 289.067 150.027 289.84 151.36 290.64C152.693 291.44 153.84 292.373 154.8 293.44C155.76 294.507 156.507 295.76 157.04 297.2C157.627 298.64 157.92 300.347 157.92 302.32C157.92 307.76 156.16 311.92 152.64 314.8C149.173 317.627 144.24 319.04 137.84 319.04C135.707 319.04 133.787 318.88 132.08 318.56C130.427 318.24 128.987 317.867 127.76 317.44C126.533 317.013 125.467 316.56 124.56 316.08C123.707 315.547 123.013 315.093 122.48 314.72L126.72 307.2C127.253 307.52 127.92 307.893 128.72 308.32C129.573 308.747 130.507 309.147 131.52 309.52C132.587 309.893 133.733 310.213 134.96 310.48C136.187 310.693 137.493 310.8 138.88 310.8ZM164.24 318L176.08 268.48H205.44L203.52 276.64H184L181.28 287.76H198.24L196.32 295.92H179.36L176 309.84H197.28L195.36 318H164.24ZM202.4 259.12L188.48 266.4L184.88 261.04L197.52 251.6L202.4 259.12ZM18.88 374.8C20.1067 374.8 21.28 374.693 22.4 374.48C23.52 374.213 24.48 373.813 25.28 373.28C26.1333 372.693 26.8 371.973 27.28 371.12C27.8133 370.267 28.08 369.2 28.08 367.92C28.08 366.96 27.8667 366.107 27.44 365.36C27.0667 364.56 26.5333 363.84 25.84 363.2C25.1467 362.56 24.32 361.973 23.36 361.44C22.4533 360.907 21.4667 360.373 20.4 359.84C19.0667 359.147 17.8133 358.453 16.64 357.76C15.52 357.067 14.5333 356.24 13.68 355.28C12.88 354.32 12.24 353.173 11.76 351.84C11.28 350.507 11.04 348.88 11.04 346.96C11.04 342.267 12.6133 338.507 15.76 335.68C18.96 332.8 23.4933 331.36 29.36 331.36C31.28 331.36 32.9867 331.493 34.48 331.76C36.0267 332.027 37.3867 332.347 38.56 332.72C39.7333 333.093 40.72 333.493 41.52 333.92C42.3733 334.347 43.0667 334.72 43.6 335.04L39.44 342.64C38.2133 341.787 36.6667 341.067 34.8 340.48C32.9333 339.893 30.6933 339.6 28.08 339.6C26.0533 339.6 24.32 340.053 22.88 340.96C21.4933 341.867 20.8 343.44 20.8 345.68C20.8 347.493 21.3867 348.88 22.56 349.84C23.7867 350.747 25.2533 351.573 26.96 352.32C28.56 353.067 30.0267 353.84 31.36 354.64C32.6933 355.44 33.84 356.373 34.8 357.44C35.76 358.507 36.5067 359.76 37.04 361.2C37.6267 362.64 37.92 364.347 37.92 366.32C37.92 371.76 36.16 375.92 32.64 378.8C29.1733 381.627 24.24 383.04 17.84 383.04C15.7067 383.04 13.7867 382.88 12.08 382.56C10.4267 382.24 8.98667 381.867 7.76 381.44C6.53333 381.013 5.46667 380.56 4.56 380.08C3.70667 379.547 3.01333 379.093 2.48 378.72L6.72 371.2C7.25333 371.52 7.92 371.893 8.72 372.32C9.57333 372.747 10.5067 373.147 11.52 373.52C12.5867 373.893 13.7333 374.213 14.96 374.48C16.1867 374.693 17.4933 374.8 18.88 374.8ZM68.48 370.48H54.4C53.6 372.293 52.7733 374.16 51.92 376.08C51.0667 378 50.2667 379.973 49.52 382H39.52C44.0533 372.08 48.4267 362.987 52.64 354.72C56.8533 346.4 60.96 338.987 64.96 332.48H75.44C76.1867 338.773 76.7733 345.44 77.2 352.48C77.68 359.467 77.9733 366.933 78.08 374.88V382H68.16L68.48 370.48ZM68.16 341.84C67.4667 343.173 66.7733 344.48 66.08 345.76C65.44 347.04 64.72 348.48 63.92 350.08C63.1733 351.627 62.32 353.413 61.36 355.44C60.4 357.467 59.3067 359.84 58.08 362.56H68.64C68.6933 359.84 68.6933 357.467 68.64 355.44C68.64 353.413 68.6133 351.627 68.56 350.08C68.5067 348.48 68.4267 347.04 68.32 345.76C68.2667 344.427 68.2133 343.12 68.16 341.84ZM103.28 332.48C103.387 333.6 103.52 335.093 103.68 336.96C103.893 338.773 104.08 340.747 104.24 342.88C104.4 344.96 104.533 347.12 104.64 349.36C104.8 351.6 104.933 353.68 105.04 355.6L117.04 332.48H126.08C125.013 340.533 123.653 348.667 122 356.88C120.4 365.04 118.667 373.413 116.8 382H107.76L117.68 343.12L106.64 364.48H99.68C99.5733 360.96 99.3867 357.387 99.12 353.76C98.9067 350.133 98.6667 346.72 98.4 343.52L89.52 382H80.48C81.6 377.947 82.7467 373.733 83.92 369.36C85.1467 364.987 86.3733 360.64 87.6 356.32C88.8267 351.947 90.0267 347.733 91.2 343.68C92.4267 339.627 93.6267 335.893 94.8 332.48H103.28ZM138.96 383.04C134.267 383.04 130.827 381.92 128.64 379.68C126.453 377.44 125.36 374.32 125.36 370.32C125.36 368.133 125.68 365.68 126.32 362.96L133.68 332.48H143.52L136.24 362.88C135.973 364.107 135.733 365.28 135.52 366.4C135.307 367.467 135.2 368.453 135.2 369.36C135.2 370.96 135.573 372.213 136.32 373.12C137.067 374.027 138.427 374.48 140.4 374.48C141.573 374.48 142.587 374.32 143.44 374C144.293 373.627 145.04 373.04 145.68 372.24C146.32 371.387 146.88 370.267 147.36 368.88C147.893 367.493 148.4 365.76 148.88 363.68L156.4 332.48H166.24L158.56 364.4C157.867 367.333 157.067 369.947 156.16 372.24C155.307 374.533 154.16 376.48 152.72 378.08C151.28 379.68 149.44 380.907 147.2 381.76C145.013 382.613 142.267 383.04 138.96 383.04ZM164.24 382L176.08 332.48H205.44L203.52 340.64H184L181.28 351.76H198.24L196.32 359.92H179.36L176 373.84H197.28L195.36 382H164.24ZM234.32 382H203.6L215.44 332.48H225.28L215.36 373.84H236.24L234.32 382Z" fill="white"/>
</svg>
