<svg width="240" height="240" viewBox="0 0 240 240" fill="none" xmlns="http://www.w3.org/2000/svg">
<path d="M113.44 139.88C112.267 144.893 110.773 149.587 108.96 153.96C107.147 158.227 104.747 161.96 101.76 165.16C98.7733 168.253 94.9867 170.707 90.4 172.52C85.92 174.227 80.4267 175.08 73.92 175.08C70.5067 175.08 67.3067 174.707 64.32 173.96C61.44 173.32 58.8267 172.467 56.48 171.4C54.24 170.333 52.2133 169.16 50.4 167.88C48.5867 166.6 47.0933 165.373 45.92 164.2L56 149.96C58.1333 151.88 60.64 153.693 63.52 155.4C66.5067 157.107 69.8667 157.96 73.6 157.96C78.72 157.96 82.9333 156.627 86.24 153.96C89.6533 151.187 92.2667 146.12 94.08 138.76L105.6 90.28H73.6L77.44 73.96H129.12L113.44 139.88ZM157.76 158.6C160.213 158.6 162.56 158.387 164.8 157.96C167.04 157.427 168.96 156.627 170.56 155.56C172.267 154.387 173.6 152.947 174.56 151.24C175.627 149.533 176.16 147.4 176.16 144.84C176.16 142.92 175.733 141.213 174.88 139.72C174.133 138.12 173.067 136.68 171.68 135.4C170.293 134.12 168.64 132.947 166.72 131.88C164.907 130.813 162.933 129.747 160.8 128.68C158.133 127.293 155.627 125.907 153.28 124.52C151.04 123.133 149.067 121.48 147.36 119.56C145.76 117.64 144.48 115.347 143.52 112.68C142.56 110.013 142.08 106.76 142.08 102.92C142.08 93.5333 145.227 86.0133 151.52 80.36C157.92 74.6 166.987 71.72 178.72 71.72C182.56 71.72 185.973 71.9867 188.96 72.52C192.053 73.0533 194.773 73.6933 197.12 74.44C199.467 75.1867 201.44 75.9867 203.04 76.84C204.747 77.6933 206.133 78.44 207.2 79.08L198.88 94.28C196.427 92.5733 193.333 91.1333 189.6 89.96C185.867 88.7867 181.387 88.2 176.16 88.2C172.107 88.2 168.64 89.1067 165.76 90.92C162.987 92.7333 161.6 95.88 161.6 100.36C161.6 103.987 162.773 106.76 165.12 108.68C167.573 110.493 170.507 112.147 173.92 113.64C177.12 115.133 180.053 116.68 182.72 118.28C185.387 119.88 187.68 121.747 189.6 123.88C191.52 126.013 193.013 128.52 194.08 131.4C195.253 134.28 195.84 137.693 195.84 141.64C195.84 152.52 192.32 160.84 185.28 166.6C178.347 172.253 168.48 175.08 155.68 175.08C151.413 175.08 147.573 174.76 144.16 174.12C140.853 173.48 137.973 172.733 135.52 171.88C133.067 171.027 130.933 170.12 129.12 169.16C127.413 168.093 126.027 167.187 124.96 166.44L133.44 151.4C134.507 152.04 135.84 152.787 137.44 153.64C139.147 154.493 141.013 155.293 143.04 156.04C145.173 156.787 147.467 157.427 149.92 157.96C152.373 158.387 154.987 158.6 157.76 158.6Z" fill="white"/>
<circle cx="120" cy="120" r="112" stroke="white" stroke-width="16"/>
</svg>
