<svg width="500" height="240" viewBox="0 0 500 240" fill="none" xmlns="http://www.w3.org/2000/svg">
<path d="M113.44 139.88C112.267 144.893 110.773 149.587 108.96 153.96C107.147 158.227 104.747 161.96 101.76 165.16C98.7733 168.253 94.9867 170.707 90.4 172.52C85.92 174.227 80.4267 175.08 73.92 175.08C70.5067 175.08 67.3067 174.707 64.32 173.96C61.44 173.32 58.8267 172.467 56.48 171.4C54.24 170.333 52.2133 169.16 50.4 167.88C48.5867 166.6 47.0933 165.373 45.92 164.2L56 149.96C58.1333 151.88 60.64 153.693 63.52 155.4C66.5067 157.107 69.8667 157.96 73.6 157.96C78.72 157.96 82.9333 156.627 86.24 153.96C89.6533 151.187 92.2667 146.12 94.08 138.76L105.6 90.28H73.6L77.44 73.96H129.12L113.44 139.88ZM157.76 158.6C160.213 158.6 162.56 158.387 164.8 157.96C167.04 157.427 168.96 156.627 170.56 155.56C172.267 154.387 173.6 152.947 174.56 151.24C175.627 149.533 176.16 147.4 176.16 144.84C176.16 142.92 175.733 141.213 174.88 139.72C174.133 138.12 173.067 136.68 171.68 135.4C170.293 134.12 168.64 132.947 166.72 131.88C164.907 130.813 162.933 129.747 160.8 128.68C158.133 127.293 155.627 125.907 153.28 124.52C151.04 123.133 149.067 121.48 147.36 119.56C145.76 117.64 144.48 115.347 143.52 112.68C142.56 110.013 142.08 106.76 142.08 102.92C142.08 93.5333 145.227 86.0133 151.52 80.36C157.92 74.6 166.987 71.72 178.72 71.72C182.56 71.72 185.973 71.9867 188.96 72.52C192.053 73.0533 194.773 73.6933 197.12 74.44C199.467 75.1867 201.44 75.9867 203.04 76.84C204.747 77.6933 206.133 78.44 207.2 79.08L198.88 94.28C196.427 92.5733 193.333 91.1333 189.6 89.96C185.867 88.7867 181.387 88.2 176.16 88.2C172.107 88.2 168.64 89.1067 165.76 90.92C162.987 92.7333 161.6 95.88 161.6 100.36C161.6 103.987 162.773 106.76 165.12 108.68C167.573 110.493 170.507 112.147 173.92 113.64C177.12 115.133 180.053 116.68 182.72 118.28C185.387 119.88 187.68 121.747 189.6 123.88C191.52 126.013 193.013 128.52 194.08 131.4C195.253 134.28 195.84 137.693 195.84 141.64C195.84 152.52 192.32 160.84 185.28 166.6C178.347 172.253 168.48 175.08 155.68 175.08C151.413 175.08 147.573 174.76 144.16 174.12C140.853 173.48 137.973 172.733 135.52 171.88C133.067 171.027 130.933 170.12 129.12 169.16C127.413 168.093 126.027 167.187 124.96 166.44L133.44 151.4C134.507 152.04 135.84 152.787 137.44 153.64C139.147 154.493 141.013 155.293 143.04 156.04C145.173 156.787 147.467 157.427 149.92 157.96C152.373 158.387 154.987 158.6 157.76 158.6Z" fill="white"/>
<circle cx="120" cy="120" r="112" stroke="white" stroke-width="16"/>
<path d="M296.72 97.44C296.133 99.9467 295.387 102.293 294.48 104.48C293.573 106.613 292.373 108.48 290.88 110.08C289.387 111.627 287.493 112.853 285.2 113.76C282.96 114.613 280.213 115.04 276.96 115.04C275.253 115.04 273.653 114.853 272.16 114.48C270.72 114.16 269.413 113.733 268.24 113.2C267.12 112.667 266.107 112.08 265.2 111.44C264.293 110.8 263.547 110.187 262.96 109.6L268 102.48C269.067 103.44 270.32 104.347 271.76 105.2C273.253 106.053 274.933 106.48 276.8 106.48C279.36 106.48 281.467 105.813 283.12 104.48C284.827 103.093 286.133 100.56 287.04 96.88L292.8 72.64H276.8L278.72 64.48H304.56L296.72 97.44ZM329.36 63.36C333.68 63.36 337.067 64.7733 339.52 67.6C341.973 70.3733 343.2 74.08 343.2 78.72C343.2 80.8 343.04 83.1467 342.72 85.76C342.4 88.3733 341.867 91.04 341.12 93.76C340.373 96.4267 339.387 99.04 338.16 101.6C336.933 104.16 335.44 106.453 333.68 108.48C331.92 110.453 329.84 112.053 327.44 113.28C325.093 114.453 322.373 115.04 319.28 115.04C314.907 115.04 311.493 113.653 309.04 110.88C306.587 108.053 305.36 104.32 305.36 99.68C305.36 97.6 305.52 95.2533 305.84 92.64C306.16 90.0267 306.693 87.3867 307.44 84.72C308.24 82 309.227 79.36 310.4 76.8C311.627 74.24 313.12 71.9733 314.88 70C316.693 67.9733 318.773 66.3733 321.12 65.2C323.52 63.9733 326.267 63.36 329.36 63.36ZM320.4 106.48C322.587 106.48 324.48 105.547 326.08 103.68C327.733 101.813 329.093 99.52 330.16 96.8C331.227 94.0267 332.027 91.0933 332.56 88C333.093 84.8533 333.36 82 333.36 79.44C333.36 77.36 332.987 75.6 332.24 74.16C331.547 72.6667 330.213 71.92 328.24 71.92C326.053 71.92 324.133 72.8533 322.48 74.72C320.827 76.5867 319.467 78.9067 318.4 81.68C317.333 84.4 316.533 87.3333 316 90.48C315.467 93.6267 315.2 96.4533 315.2 98.96C315.2 101.04 315.547 102.827 316.24 104.32C316.987 105.76 318.373 106.48 320.4 106.48ZM358.88 106.8C360.107 106.8 361.28 106.693 362.4 106.48C363.52 106.213 364.48 105.813 365.28 105.28C366.133 104.693 366.8 103.973 367.28 103.12C367.813 102.267 368.08 101.2 368.08 99.92C368.08 98.96 367.867 98.1067 367.44 97.36C367.067 96.56 366.533 95.84 365.84 95.2C365.147 94.56 364.32 93.9733 363.36 93.44C362.453 92.9067 361.467 92.3733 360.4 91.84C359.067 91.1467 357.813 90.4533 356.64 89.76C355.52 89.0667 354.533 88.24 353.68 87.28C352.88 86.32 352.24 85.1733 351.76 83.84C351.28 82.5067 351.04 80.88 351.04 78.96C351.04 74.2667 352.613 70.5067 355.76 67.68C358.96 64.8 363.493 63.36 369.36 63.36C371.28 63.36 372.987 63.4933 374.48 63.76C376.027 64.0267 377.387 64.3467 378.56 64.72C379.733 65.0933 380.72 65.4933 381.52 65.92C382.373 66.3467 383.067 66.72 383.6 67.04L379.44 74.64C378.213 73.7867 376.667 73.0667 374.8 72.48C372.933 71.8933 370.693 71.6 368.08 71.6C366.053 71.6 364.32 72.0533 362.88 72.96C361.493 73.8667 360.8 75.44 360.8 77.68C360.8 79.4933 361.387 80.88 362.56 81.84C363.787 82.7467 365.253 83.5733 366.96 84.32C368.56 85.0667 370.027 85.84 371.36 86.64C372.693 87.44 373.84 88.3733 374.8 89.44C375.76 90.5067 376.507 91.76 377.04 93.2C377.627 94.64 377.92 96.3467 377.92 98.32C377.92 103.76 376.16 107.92 372.64 110.8C369.173 113.627 364.24 115.04 357.84 115.04C355.707 115.04 353.787 114.88 352.08 114.56C350.427 114.24 348.987 113.867 347.76 113.44C346.533 113.013 345.467 112.56 344.56 112.08C343.707 111.547 343.013 111.093 342.48 110.72L346.72 103.2C347.253 103.52 347.92 103.893 348.72 104.32C349.573 104.747 350.507 105.147 351.52 105.52C352.587 105.893 353.733 106.213 354.96 106.48C356.187 106.693 357.493 106.8 358.88 106.8ZM384.24 114L396.08 64.48H425.44L423.52 72.64H404L401.28 83.76H418.24L416.32 91.92H399.36L396 105.84H417.28L415.36 114H384.24ZM422.4 55.12L408.48 62.4L404.88 57.04L417.52 47.6L422.4 55.12ZM278.88 170.8C280.107 170.8 281.28 170.693 282.4 170.48C283.52 170.213 284.48 169.813 285.28 169.28C286.133 168.693 286.8 167.973 287.28 167.12C287.813 166.267 288.08 165.2 288.08 163.92C288.08 162.96 287.867 162.107 287.44 161.36C287.067 160.56 286.533 159.84 285.84 159.2C285.147 158.56 284.32 157.973 283.36 157.44C282.453 156.907 281.467 156.373 280.4 155.84C279.067 155.147 277.813 154.453 276.64 153.76C275.52 153.067 274.533 152.24 273.68 151.28C272.88 150.32 272.24 149.173 271.76 147.84C271.28 146.507 271.04 144.88 271.04 142.96C271.04 138.267 272.613 134.507 275.76 131.68C278.96 128.8 283.493 127.36 289.36 127.36C291.28 127.36 292.987 127.493 294.48 127.76C296.027 128.027 297.387 128.347 298.56 128.72C299.733 129.093 300.72 129.493 301.52 129.92C302.373 130.347 303.067 130.72 303.6 131.04L299.44 138.64C298.213 137.787 296.667 137.067 294.8 136.48C292.933 135.893 290.693 135.6 288.08 135.6C286.053 135.6 284.32 136.053 282.88 136.96C281.493 137.867 280.8 139.44 280.8 141.68C280.8 143.493 281.387 144.88 282.56 145.84C283.787 146.747 285.253 147.573 286.96 148.32C288.56 149.067 290.027 149.84 291.36 150.64C292.693 151.44 293.84 152.373 294.8 153.44C295.76 154.507 296.507 155.76 297.04 157.2C297.627 158.64 297.92 160.347 297.92 162.32C297.92 167.76 296.16 171.92 292.64 174.8C289.173 177.627 284.24 179.04 277.84 179.04C275.707 179.04 273.787 178.88 272.08 178.56C270.427 178.24 268.987 177.867 267.76 177.44C266.533 177.013 265.467 176.56 264.56 176.08C263.707 175.547 263.013 175.093 262.48 174.72L266.72 167.2C267.253 167.52 267.92 167.893 268.72 168.32C269.573 168.747 270.507 169.147 271.52 169.52C272.587 169.893 273.733 170.213 274.96 170.48C276.187 170.693 277.493 170.8 278.88 170.8ZM328.48 166.48H314.4C313.6 168.293 312.773 170.16 311.92 172.08C311.067 174 310.267 175.973 309.52 178H299.52C304.053 168.08 308.427 158.987 312.64 150.72C316.853 142.4 320.96 134.987 324.96 128.48H335.44C336.187 134.773 336.773 141.44 337.2 148.48C337.68 155.467 337.973 162.933 338.08 170.88V178H328.16L328.48 166.48ZM328.16 137.84C327.467 139.173 326.773 140.48 326.08 141.76C325.44 143.04 324.72 144.48 323.92 146.08C323.173 147.627 322.32 149.413 321.36 151.44C320.4 153.467 319.307 155.84 318.08 158.56H328.64C328.693 155.84 328.693 153.467 328.64 151.44C328.64 149.413 328.613 147.627 328.56 146.08C328.507 144.48 328.427 143.04 328.32 141.76C328.267 140.427 328.213 139.12 328.16 137.84ZM363.28 128.48C363.387 129.6 363.52 131.093 363.68 132.96C363.893 134.773 364.08 136.747 364.24 138.88C364.4 140.96 364.533 143.12 364.64 145.36C364.8 147.6 364.933 149.68 365.04 151.6L377.04 128.48H386.08C385.013 136.533 383.653 144.667 382 152.88C380.4 161.04 378.667 169.413 376.8 178H367.76L377.68 139.12L366.64 160.48H359.68C359.573 156.96 359.387 153.387 359.12 149.76C358.907 146.133 358.667 142.72 358.4 139.52L349.52 178H340.48C341.6 173.947 342.747 169.733 343.92 165.36C345.147 160.987 346.373 156.64 347.6 152.32C348.827 147.947 350.027 143.733 351.2 139.68C352.427 135.627 353.627 131.893 354.8 128.48H363.28ZM398.96 179.04C394.267 179.04 390.827 177.92 388.64 175.68C386.453 173.44 385.36 170.32 385.36 166.32C385.36 164.133 385.68 161.68 386.32 158.96L393.68 128.48H403.52L396.24 158.88C395.973 160.107 395.733 161.28 395.52 162.4C395.307 163.467 395.2 164.453 395.2 165.36C395.2 166.96 395.573 168.213 396.32 169.12C397.067 170.027 398.427 170.48 400.4 170.48C401.573 170.48 402.587 170.32 403.44 170C404.293 169.627 405.04 169.04 405.68 168.24C406.32 167.387 406.88 166.267 407.36 164.88C407.893 163.493 408.4 161.76 408.88 159.68L416.4 128.48H426.24L418.56 160.4C417.867 163.333 417.067 165.947 416.16 168.24C415.307 170.533 414.16 172.48 412.72 174.08C411.28 175.68 409.44 176.907 407.2 177.76C405.013 178.613 402.267 179.04 398.96 179.04ZM424.24 178L436.08 128.48H465.44L463.52 136.64H444L441.28 147.76H458.24L456.32 155.92H439.36L436 169.84H457.28L455.36 178H424.24ZM494.32 178H463.6L475.44 128.48H485.28L475.36 169.84H496.24L494.32 178Z" fill="white"/>
</svg>
